<?xml version="1.0" ?><svg enable-background="new 0 0 512 512" id="Layer_1" version="1.1" viewBox="0 0 512 512" xml:space="preserve" xmlns="http://www.w3.org/2000/svg" xmlns:xlink="http://www.w3.org/1999/xlink"><g><g><linearGradient gradientUnits="userSpaceOnUse" id="SVGID_1_" x1="-0.0000027" x2="512" y1="256" y2="256"><stop offset="0" style="stop-color:#F67950"/><stop offset="1" style="stop-color:#F15A29"/></linearGradient><circle cx="256" cy="256" fill="url(#SVGID_1_)" r="256"/><linearGradient gradientUnits="userSpaceOnUse" id="SVGID_2_" x1="42.6666641" x2="469.3333435" y1="256.0005188" y2="256.0005188"><stop offset="0" style="stop-color:#F15A29"/><stop offset="1" style="stop-color:#F67950"/></linearGradient><path d="M256,469.3338623c-117.6309967,0-213.3333435-95.7018738-213.3333435-213.3333435    c0-117.6309204,95.7023392-213.333313,213.3333435-213.333313c117.6362,0,213.3333435,95.7024002,213.3333435,213.333313    C469.3333435,373.6319885,373.6362,469.3338623,256,469.3338623z" fill="url(#SVGID_2_)"/></g><path d="M384,251.8298645c0,48.1216125-53.7259216,87.1311951-120,87.1311951   c-10.2747345,0-20.2475281-0.9375916-29.7653351-2.7008057l-58.0016632,27.0421448l12.2981415-43.7258606   C161.3658142,303.6026611,144,279.1888123,144,251.8298645c0-48.1215973,53.7252808-87.1317291,120-87.1317291   C330.2740784,164.6981354,384,203.7082672,384,251.8298645z" opacity="0.3"/><path d="M376,243.8298645c0,48.1216125-53.7259216,87.1311951-120,87.1311951   c-10.2747345,0-20.2475281-0.9375916-29.7653351-2.7008057l-58.0016632,27.0421448l12.2981415-43.7258606   C153.3658142,295.6026611,136,271.1888123,136,243.8298645c0-48.1215973,53.7252808-87.1317291,120-87.1317291   C322.2740784,156.6981354,376,195.7082672,376,243.8298645z" fill="#FFFFFF"/></g></svg>